<?xml version="1.0" standalone="no"?>
<!DOCTYPE svg PUBLIC "-//W3C//DTD SVG 20010904//EN"
 "http://www.w3.org/TR/2001/REC-SVG-20010904/DTD/svg10.dtd">
<svg version="1.0" xmlns="http://www.w3.org/2000/svg"
 width="3840.000000pt" height="2160.000000pt" viewBox="0 0 3840.000000 2160.000000"
 preserveAspectRatio="xMidYMid meet">

<g transform="translate(0.000000,2160.000000) scale(0.100000,-0.100000)"
fill="#000000" stroke="none">
<path d="M18800 21359 c-2327 -82 -4570 -942 -6363 -2437 -265 -221 -417 -361
-708 -651 -290 -291 -430 -443 -651 -708 -1715 -2056 -2579 -4676 -2427 -7358
136 -2402 1068 -4645 2683 -6455 155 -174 632 -651 806 -806 1487 -1327 3265
-2194 5203 -2538 1210 -215 2494 -215 3704 0 1807 320 3490 1103 4905 2281
469 390 981 903 1380 1383 915 1100 1613 2419 2013 3804 582 2018 545 4215
-106 6203 -460 1404 -1180 2654 -2169 3768 -172 193 -642 663 -835 835 -1076
955 -2292 1667 -3623 2121 -1233 420 -2498 605 -3812 558z m-4086 -4568 c531
-110 936 -449 1090 -911 58 -174 70 -254 71 -445 0 -394 -118 -708 -364 -968
-115 -120 -231 -205 -386 -282 -243 -121 -426 -165 -720 -172 -354 -9 -630 51
-880 194 -594 338 -847 1027 -619 1686 70 201 177 369 328 515 204 195 464
326 763 381 155 29 156 29 398 26 175 -3 241 -8 319 -24z m7944 -3706 c643
-68 1177 -274 1607 -622 125 -101 328 -308 425 -433 358 -464 575 -1027 670
-1742 56 -428 54 -278 57 -2931 4 -2385 3 -2449 -15 -2491 -37 -82 69 -76
-1334 -76 -1164 0 -1245 1 -1277 18 -19 9 -44 30 -55 45 l-21 28 -6 2282 c-5
2070 -7 2294 -22 2406 -66 479 -185 765 -424 1012 -307 317 -725 451 -1162
373 -174 -31 -345 -100 -498 -200 -416 -270 -660 -678 -712 -1194 -8 -68 -11
-865 -11 -2400 l0 -2297 -21 -26 c-11 -15 -37 -31 -57 -37 -26 -8 -422 -10
-1294 -8 l-1257 3 -28 21 c-16 12 -33 38 -40 63 -9 33 -10 358 -2 1504 7 876
8 2456 4 3943 -7 2741 -12 2534 56 2569 30 16 131 17 1290 16 710 0 1267 -5
1281 -10 12 -5 32 -19 43 -31 19 -21 20 -40 25 -541 l5 -519 41 48 c22 26 72
90 111 143 273 370 598 648 978 834 322 159 649 240 1075 269 98 7 427 -5 568
-19z m-7032 -187 c15 -7 37 -26 48 -41 l21 -28 3 -3961 c2 -3848 2 -3961 -17
-4002 -36 -82 70 -76 -1338 -76 -1168 0 -1250 1 -1283 18 -20 10 -42 32 -52
52 -17 33 -18 245 -18 3998 0 3515 2 3966 15 3992 18 35 46 52 100 59 22 4
592 5 1267 4 1002 -1 1232 -4 1254 -15z"/>
</g>
</svg>
