<?xml version="1.0" standalone="no"?>
<!DOCTYPE svg PUBLIC "-//W3C//DTD SVG 20010904//EN"
 "http://www.w3.org/TR/2001/REC-SVG-20010904/DTD/svg10.dtd">
<svg version="1.0" xmlns="http://www.w3.org/2000/svg"
 width="400.000000pt" height="400.000000pt" viewBox="0 0 400.000000 400.000000"
 preserveAspectRatio="xMidYMid meet">

<g transform="translate(0.000000,400.000000) scale(0.100000,-0.100000)"
fill="#000000" stroke="none">
<path d="M1820 3994 c-410 -51 -712 -169 -1020 -397 -404 -300 -677 -747 -772
-1265 -29 -156 -31 -485 -5 -637 79 -456 269 -820 588 -1130 195 -189 370
-306 611 -408 442 -189 950 -209 1413 -56 502 166 933 544 1165 1022 303 623
262 1359 -109 1947 -102 163 -295 377 -446 495 -360 282 -757 422 -1210 430
-99 2 -196 1 -215 -1z m630 -688 c0 -24 9 -75 21 -112 78 -256 285 -435 534
-460 l65 -7 0 -223 c0 -208 -1 -224 -18 -224 -10 0 -56 5 -102 10 -158 20
-303 69 -433 148 l-66 40 -3 -526 c-4 -597 -1 -572 -88 -749 -100 -203 -290
-360 -517 -425 -65 -19 -102 -23 -218 -23 -160 1 -221 14 -350 74 -315 148
-512 504 -465 842 53 388 334 669 722 720 54 7 118 9 151 5 l57 -7 0 -229 0
-228 -37 10 c-63 17 -163 5 -236 -30 -83 -38 -141 -96 -180 -180 -29 -60 -32
-77 -32 -157 0 -118 31 -191 116 -269 90 -84 134 -101 254 -101 89 1 106 4
158 29 74 36 147 109 184 183 l28 58 3 938 2 937 225 0 225 0 0 -44z"/>
</g>
</svg>
