<svg version="1.1" id="Layer_1" xmlns="http://www.w3.org/2000/svg" xmlns:xlink="http://www.w3.org/1999/xlink" x="0px" y="0px"
	 width="100%" viewBox="0 0 1050 600" enable-background="new 0 0 1050 600" xml:space="preserve">
<path fill="transparent" opacity="1.000000" stroke="none"
	d="
M764.000000,601.000000
	C509.333405,601.000000 255.166824,601.000000 1.000170,601.000000
	C1.000114,401.000122 1.000114,201.000275 1.000057,1.000305
	C350.999756,1.000203 700.999512,1.000203 1050.999512,1.000102
	C1050.999634,200.999695 1050.999634,400.999390 1050.999756,600.999512
	C955.500000,601.000000 860.000000,601.000000 764.000000,601.000000
M454.024200,375.933838
	C459.148224,383.046844 464.206757,390.208130 469.410278,397.262512
	C479.518524,410.966187 489.708160,424.609802 500.056885,438.916779
	C504.847931,445.372101 509.638977,451.827423 514.752380,458.914368
	C517.326599,462.542633 519.835022,466.220062 522.498291,469.781769
	C524.247742,472.121490 526.561646,472.346100 528.282532,469.976654
	C535.253906,460.378326 542.048706,450.651764 549.303772,440.419159
	C554.675659,433.390991 560.162109,426.446991 565.398926,419.319580
	C584.373718,393.494781 603.300476,367.634460 622.174988,341.736298
	C635.184265,323.885895 648.077576,305.950897 661.579773,287.663910
	C663.415161,284.932220 665.149841,282.126251 667.101990,279.480682
	C682.541077,258.556366 697.960022,237.616486 713.554626,216.808319
	C715.944763,213.619064 716.074768,211.257507 713.778503,207.981766
	C706.466003,197.550049 699.440918,186.916840 692.113403,175.749298
	C682.470886,161.281372 672.867432,146.786972 663.120544,132.389679
	C662.223450,131.064667 660.411377,130.359116 658.103882,129.169601
	C645.083618,129.225403 632.063354,129.281204 618.115723,129.140961
	C607.657654,129.124985 597.199524,129.071671 586.741577,129.100998
	C566.494568,129.157791 546.247681,129.261108 525.080078,129.168228
	C506.390533,129.223953 487.700989,129.279678 468.086548,129.152863
	C448.387360,129.214615 428.688202,129.276367 408.069214,129.169510
	C403.404816,129.145233 398.710419,128.801773 394.089203,129.236542
	C391.903290,129.442184 389.010010,130.564484 387.875183,132.243439
	C370.537720,157.893219 353.402771,183.680511 336.387482,209.545563
	C335.534760,210.841782 335.424500,213.694397 336.277802,214.879990
	C344.919586,226.887085 353.834198,238.697769 362.875519,251.171646
	C374.251038,266.879700 385.566681,282.631592 397.024017,298.279724
	C404.171082,308.041016 411.532104,317.645630 418.987549,327.959259
	C420.985382,330.816895 422.916260,333.724152 424.992462,336.523651
	C434.585876,349.459229 444.219727,362.364838 454.024200,375.933838
z"/>
<path fill="#F36F92" opacity="1.000000" stroke="none"
	d="
M548.908630,440.972504
	C542.048706,450.651764 535.253906,460.378326 528.282532,469.976654
	C526.561646,472.346100 524.247742,472.121490 522.498291,469.781769
	C519.835022,466.220062 517.326599,462.542633 514.967163,458.426880
	C516.344116,455.496521 517.364380,452.970917 518.722046,450.641998
	C519.521423,449.270660 520.856323,448.211487 522.165833,447.269318
	C522.734375,448.631561 523.016052,449.766235 523.462158,450.832153
	C523.846191,451.749695 524.417603,452.588837 524.906128,453.462646
	C525.675354,452.793945 526.617737,452.241028 527.164490,451.423492
	C527.698486,450.625061 527.830261,449.557037 528.135681,448.606445
	C548.485535,385.267822 568.832703,321.928375 589.186768,258.591125
	C593.701172,244.543320 598.239624,230.503250 602.850891,216.199326
	C600.955261,215.983047 599.488281,215.815674 598.015137,215.244965
	C598.008362,212.932175 598.007812,211.022720 598.207031,208.963028
	C598.208313,208.227020 598.009827,207.641220 598.166992,207.000687
	C599.778625,205.572769 601.034668,204.199585 602.601929,202.960938
	C604.278687,204.197144 605.644348,205.298767 607.320435,206.650848
	C622.638550,183.067352 637.686279,159.900162 653.298462,135.864014
	C640.834106,135.864014 629.425964,135.864014 618.017212,135.489441
	C618.358704,133.188919 618.700867,131.262955 619.043091,129.337006
	C632.063354,129.281204 645.083618,129.225403 658.558960,129.654999
	C658.687134,131.880325 658.215637,133.608810 658.076477,135.363647
	C657.952087,136.932098 658.194275,138.529633 658.171570,140.453262
	C643.529419,163.282928 628.990356,185.773682 613.877380,209.152191
	C620.555359,209.152191 626.285217,209.152191 632.009277,209.560577
	C632.009827,211.859222 632.016235,213.749481 631.562378,215.736420
	C626.277344,215.854111 621.411926,216.273849 616.638977,215.787231
	C611.576477,215.271072 609.504395,217.126129 607.972900,221.957703
	C589.958008,278.789673 571.679077,335.537933 553.507996,392.320435
	C548.145020,409.079071 542.902039,425.876068 537.412842,442.918640
	C537.221619,443.769806 537.221619,444.357788 537.221619,445.721008
	C537.968811,444.590027 538.293640,444.098389 538.911499,443.445343
	C542.148010,439.560059 545.091553,435.836182 548.028564,432.529053
	C548.317566,435.621368 548.613098,438.296936 548.908630,440.972504
M524.721985,454.785278
	C524.767395,455.130890 524.800537,455.479309 524.877869,455.817627
	C524.885437,455.850830 525.296509,455.836761 525.298462,455.819763
	C525.340088,455.448273 525.350220,455.073303 524.721985,454.785278
z"/>
<path fill="#FA7CA4" opacity="1.000000" stroke="none"
	d="
M469.011444,129.335403
	C487.700989,129.279678 506.390533,129.223953 525.539429,129.635468
	C525.655334,132.665298 525.311951,135.227905 524.786743,138.079193
	C500.579559,161.633575 476.554138,184.899231 451.516296,209.145294
	C467.587433,209.145294 482.295563,209.145294 497.002411,209.524933
	C496.671600,211.822861 496.342041,213.741135 495.551147,215.746429
	C479.631042,215.833435 464.172272,215.833435 448.212585,215.833435
	C448.861389,218.007065 449.309326,219.579269 449.799286,221.138245
	C456.177185,241.432083 462.560944,261.724060 468.604919,282.066101
	C466.782166,283.434601 465.297852,284.753510 463.576233,285.803650
	C457.556641,267.663788 451.824341,249.776245 445.962158,231.931366
	C444.161377,226.449738 442.005402,221.084793 440.009399,215.295898
	C441.129639,212.214645 442.252563,209.503876 443.681000,206.738846
	C468.152344,183.368164 492.318207,160.051727 517.390625,135.860596
	C499.927032,135.860596 483.964966,135.860596 468.002258,135.481689
	C468.338287,133.180328 468.674866,131.257858 469.011444,129.335403
z"/>
<path fill="#FE6EBD" opacity="1.000000" stroke="none"
	d="
M362.672302,250.563568
	C353.834198,238.697769 344.919586,226.887085 336.277802,214.879990
	C335.424500,213.694397 335.534760,210.841782 336.387482,209.545563
	C353.402771,183.680511 370.537720,157.893219 387.875183,132.243439
	C389.010010,130.564484 391.903290,129.442184 394.089203,129.236542
	C398.710419,128.801773 403.404816,129.145233 408.522461,129.613846
	C408.649933,131.992218 408.324188,133.926270 407.555908,135.915283
	C404.269653,135.970230 401.425934,135.970230 397.987701,135.970230
	C400.694489,140.851135 402.899567,144.827362 404.962097,149.129456
	C403.846649,151.051254 402.873718,152.647186 401.611816,154.048416
	C398.096069,149.008759 394.869232,144.163788 391.425140,138.992630
	C375.843231,162.451401 360.629425,185.355911 344.831268,209.140198
	C358.203247,209.140198 370.600555,209.140198 382.998291,209.519073
	C382.662445,211.820389 382.326202,213.742828 381.529510,215.748779
	C369.563995,215.832321 358.058929,215.832321 345.481720,215.832321
	C352.843964,226.212555 359.493500,235.587982 365.846283,245.151093
	C364.590454,247.080383 363.631378,248.821976 362.672302,250.563568
z"/>
<path fill="#F05C93" opacity="1.000000" stroke="none"
	d="
M549.106201,440.695831
	C548.613098,438.296936 548.317566,435.621368 548.134766,432.197998
	C548.861023,430.460754 549.411377,429.425140 550.097107,428.488647
	C576.332520,392.661346 602.558716,356.827301 628.837036,321.031525
	C639.461182,306.559479 650.202820,292.173676 660.919800,278.171417
	C660.973328,281.747375 660.997986,284.900543 661.022705,288.053711
	C648.077576,305.950897 635.184265,323.885895 622.174988,341.736298
	C603.300476,367.634460 584.373718,393.494781 565.398926,419.319580
	C560.162109,426.446991 554.675659,433.390991 549.106201,440.695831
z"/>
<path fill="#F88396" opacity="1.000000" stroke="none"
	d="
M524.968567,137.790497
	C525.311951,135.227905 525.655334,132.665298 525.999756,129.723938
	C546.247681,129.261108 566.494568,129.157791 586.741577,129.100998
	C597.199524,129.071671 607.657654,129.124985 618.579407,129.238983
	C618.700867,131.262955 618.358704,133.188919 617.550964,135.555054
	C589.738647,135.995224 562.391907,135.995224 535.860352,135.995224
	C543.359375,143.936157 550.997437,152.160446 558.789001,160.236710
	C566.485474,168.214294 574.337036,176.042160 581.836609,184.120895
	C580.681702,185.911880 579.810669,187.517670 578.640869,188.969788
	C566.646912,177.437622 554.999878,166.009064 543.236511,154.701523
	C537.255249,148.952057 531.064575,143.420517 524.968567,137.790497
z"/>
<path fill="#ED4B93" opacity="1.000000" stroke="none"
	d="
M661.301208,287.858826
	C660.997986,284.900543 660.973328,281.747375 661.039307,277.862183
	C675.773743,256.957977 690.417480,236.785828 705.767090,215.641373
	C695.946167,215.641373 687.488770,215.641373 679.022949,215.239212
	C679.014160,212.941147 679.013672,211.045258 679.477844,209.091888
	C688.376404,209.034424 696.810364,209.034424 706.001465,209.034424
	C699.896729,199.602509 694.236328,190.857056 688.908936,181.944382
	C690.262939,179.971924 691.283875,178.166702 692.304810,176.361481
	C699.440918,186.916840 706.466003,197.550049 713.778503,207.981766
	C716.074768,211.257507 715.944763,213.619064 713.554626,216.808319
	C697.960022,237.616486 682.541077,258.556366 667.101990,279.480682
	C665.149841,282.126251 663.415161,284.932220 661.301208,287.858826
z"/>
<path fill="#FC77B2" opacity="1.000000" stroke="none"
	d="
M362.773926,250.867615
	C363.631378,248.821976 364.590454,247.080383 366.125488,245.321869
	C367.806946,246.756073 368.937836,248.188705 370.013916,249.661316
	C378.701202,261.549744 387.411621,273.421478 396.048859,285.346191
	C404.790527,297.415039 413.456604,309.538666 422.012085,321.970886
	C420.844635,323.975800 419.820892,325.648163 418.797150,327.320526
	C411.532104,317.645630 404.171082,308.041016 397.024017,298.279724
	C385.566681,282.631592 374.251038,266.879700 362.773926,250.867615
z"/>
<path fill="#F88396" opacity="1.000000" stroke="none"
	d="
M499.864075,438.278320
	C489.708160,424.609802 479.518524,410.966187 469.410278,397.262512
	C464.206757,390.208130 459.148224,383.046844 454.085266,375.265991
	C455.158478,372.931213 456.170563,371.264252 457.453064,369.815857
	C468.856262,385.144714 480.050720,400.210205 491.088470,415.389679
	C494.953674,420.705292 498.433350,426.301300 502.035583,432.146362
	C501.276093,434.441772 500.570068,436.360046 499.864075,438.278320
z"/>
<path fill="#F57991" opacity="1.000000" stroke="none"
	d="
M499.960449,438.597534
	C500.570068,436.360046 501.276093,434.441772 502.357727,432.264587
	C506.348694,436.512970 509.964050,441.020264 513.579346,445.527588
	C513.834534,445.392822 514.089661,445.258057 514.344788,445.123291
	C511.278259,435.083710 508.211761,425.044098 505.479126,414.940369
	C507.325287,413.534180 508.837616,412.192078 510.557739,411.133362
	C514.493774,423.281830 518.222046,435.146851 521.950317,447.011902
	C520.856323,448.211487 519.521423,449.270660 518.722046,450.641998
	C517.364380,452.970917 516.344116,455.496521 514.806030,458.111084
	C509.638977,451.827423 504.847931,445.372101 499.960449,438.597534
z"/>
<path fill="#FA7CA4" opacity="1.000000" stroke="none"
	d="
M457.182648,369.597290
	C456.170563,371.264252 455.158478,372.931213 453.992737,374.939667
	C444.219727,362.364838 434.585876,349.459229 424.992462,336.523651
	C422.916260,333.724152 420.985382,330.816895 418.892334,327.639893
	C419.820892,325.648163 420.844635,323.975800 422.286011,322.184540
	C425.988861,326.448792 429.341919,330.783112 432.546173,335.224731
	C440.793457,346.656891 448.974884,358.136597 457.182648,369.597290
z"/>
<path fill="#FC77B2" opacity="1.000000" stroke="none"
	d="
M407.998413,135.860321
	C408.324188,133.926270 408.649933,131.992218 408.982361,129.698151
	C428.688202,129.276367 448.387360,129.214615 468.549011,129.244141
	C468.674866,131.257858 468.338287,133.180328 467.536407,135.540009
	C447.380249,135.938263 427.689331,135.899292 407.998413,135.860321
z"/>
<path fill="#F05C93" opacity="1.000000" stroke="none"
	d="
M692.209106,176.055389
	C691.283875,178.166702 690.262939,179.971924 688.663574,181.744598
	C679.386353,168.636795 670.723328,155.537277 661.924622,142.529602
	C661.169128,141.412582 659.512634,140.904999 658.274658,140.114334
	C658.194275,138.529633 657.952087,136.932098 658.076477,135.363647
	C658.215637,133.608810 658.687134,131.880325 659.019104,129.753143
	C660.411377,130.359116 662.223450,131.064667 663.120544,132.389679
	C672.867432,146.786972 682.470886,161.281372 692.209106,176.055389
z"/>
<path fill="transparent" opacity="1.000000" stroke="none"
	d="
M522.165833,447.269318
	C518.222046,435.146851 514.493774,423.281830 510.492371,410.742981
	C509.980652,409.103210 509.798920,408.118988 509.495239,407.173920
	C500.699524,379.797913 491.921051,352.416351 483.073700,325.057037
	C478.427551,310.689514 473.657410,296.362061 468.943298,282.016510
	C462.560944,261.724060 456.177185,241.432083 449.799286,221.138245
	C449.309326,219.579269 448.861389,218.007065 448.212585,215.833435
	C464.172272,215.833435 479.631042,215.833435 496.011566,215.835358
	C520.632080,215.776627 544.330872,215.715988 568.489075,215.736984
	C578.639465,215.761841 588.330383,215.705063 598.021301,215.648285
	C599.488281,215.815674 600.955261,215.983047 602.850891,216.199326
	C598.239624,230.503250 593.701172,244.543320 589.186768,258.591125
	C568.832703,321.928375 548.485535,385.267822 528.135681,448.606445
	C527.830261,449.557037 527.698486,450.625061 527.164490,451.423492
	C526.617737,452.241028 525.675354,452.793945 524.906128,453.462646
	C524.417603,452.588837 523.846191,451.749695 523.462158,450.832153
	C523.016052,449.766235 522.734375,448.631561 522.165833,447.269318
z"/>
<path fill="transparent" opacity="1.000000" stroke="none"
	d="
M679.031311,215.641373
	C687.488770,215.641373 695.946167,215.641373 705.767090,215.641373
	C690.417480,236.785828 675.773743,256.957977 661.010437,277.439392
	C650.202820,292.173676 639.461182,306.559479 628.837036,321.031525
	C602.558716,356.827301 576.332520,392.661346 550.097107,428.488647
	C549.411377,429.425140 548.861023,430.460754 548.141296,431.781250
	C545.091553,435.836182 542.148010,439.560059 538.666138,443.198730
	C537.953247,442.960907 537.778687,442.808228 537.604126,442.655518
	C542.902039,425.876068 548.145020,409.079071 553.507996,392.320435
	C571.679077,335.537933 589.958008,278.789673 607.972900,221.957703
	C609.504395,217.126129 611.576477,215.271072 616.638977,215.787231
	C621.411926,216.273849 626.277344,215.854111 632.022888,215.820297
	C648.306274,215.752121 663.668762,215.696747 679.031311,215.641373
z"/>
<path fill="transparent" opacity="1.000000" stroke="none"
	d="
M524.786743,138.079193
	C531.064575,143.420517 537.255249,148.952057 543.236511,154.701523
	C554.999878,166.009064 566.646912,177.437622 578.796021,189.261078
	C585.437134,195.489166 591.624207,201.272308 597.811340,207.055420
	C598.009827,207.641220 598.208313,208.227020 597.739990,208.913177
	C587.718689,209.058090 578.364319,209.102615 568.544189,209.083282
	C544.386902,209.061386 520.695251,209.103348 497.003662,209.145294
	C482.295563,209.145294 467.587433,209.145294 451.516296,209.145294
	C476.554138,184.899231 500.579559,161.633575 524.786743,138.079193
z"/>
<path fill="transparent" opacity="1.000000" stroke="none"
	d="
M582.120544,183.935699
	C574.337036,176.042160 566.485474,168.214294 558.789001,160.236710
	C550.997437,152.160446 543.359375,143.936157 535.860352,135.995224
	C562.391907,135.995224 589.738647,135.995224 617.551636,135.929626
	C629.425964,135.864014 640.834106,135.864014 653.298462,135.864014
	C637.686279,159.900162 622.638550,183.067352 607.320435,206.650848
	C605.644348,205.298767 604.278687,204.197144 602.427856,202.670700
	C595.335205,196.142502 588.727844,190.039093 582.120544,183.935699
z"/>
<path fill="transparent" opacity="1.000000" stroke="none"
	d="
M658.171509,140.453262
	C659.512634,140.904999 661.169128,141.412582 661.924622,142.529602
	C670.723328,155.537277 679.386353,168.636795 688.330566,181.911804
	C694.236328,190.857056 699.896729,199.602509 706.001465,209.034424
	C696.810364,209.034424 688.376404,209.034424 679.012573,209.022888
	C662.726868,209.058289 647.370972,209.105240 632.015076,209.152191
	C626.285217,209.152191 620.555359,209.152191 613.877380,209.152191
	C628.990356,185.773682 643.529419,163.282928 658.171509,140.453262
z"/>
<path fill="#F05C93" opacity="1.000000" stroke="none"
	d="
M632.009277,209.560577
	C647.370972,209.105240 662.726868,209.058289 678.547974,209.080353
	C679.013672,211.045258 679.014160,212.941147 679.022949,215.239212
	C663.668762,215.696747 648.306274,215.752121 632.483154,215.723633
	C632.016235,213.749481 632.009827,211.859222 632.009277,209.560577
z"/>
<path fill="#F57991" opacity="1.000000" stroke="none"
	d="
M569.009888,209.147125
	C578.364319,209.102615 587.718689,209.058090 597.540161,209.063416
	C598.007812,211.022720 598.008362,212.932175 598.015137,215.244965
	C588.330383,215.705063 578.639465,215.761841 568.480957,215.367798
	C568.345581,212.993698 568.677734,211.070404 569.009888,209.147125
z"/>
<path fill="#F57991" opacity="1.000000" stroke="none"
	d="
M581.836609,184.120895
	C588.727844,190.039093 595.335205,196.142502 602.116638,202.536133
	C601.034668,204.199585 599.778625,205.572769 598.166992,207.000702
	C591.624207,201.272308 585.437134,195.489166 579.094849,189.414749
	C579.810669,187.517670 580.681702,185.911880 581.836609,184.120895
z"/>
<path fill="transparent" opacity="1.000000" stroke="none"
	d="
M538.373047,443.360168
	C538.293640,444.098389 537.968811,444.590027 537.221619,445.721008
	C537.221619,444.357788 537.221619,443.769806 537.412842,442.918640
	C537.778687,442.808228 537.953247,442.960907 538.373047,443.360168
z"/>
<path fill="transparent" opacity="1.000000" stroke="none"
	d="
M525.044189,454.742126
	C525.350220,455.073303 525.340088,455.448273 525.298462,455.819763
	C525.296509,455.836761 524.885437,455.850830 524.877869,455.817627
	C524.800537,455.479309 524.767395,455.130890 525.044189,454.742126
z"/>
<path fill="transparent" opacity="1.000000" stroke="none"
	d="
M457.453064,369.815857
	C448.974884,358.136597 440.793457,346.656891 432.546173,335.224731
	C429.341919,330.783112 425.988861,326.448792 422.429688,321.851959
	C413.456604,309.538666 404.790527,297.415039 396.048859,285.346191
	C387.411621,273.421478 378.701202,261.549744 370.013916,249.661316
	C368.937836,248.188705 367.806946,246.756073 366.422241,245.134155
	C359.493500,235.587982 352.843964,226.212555 345.481720,215.832321
	C358.058929,215.832321 369.563995,215.832321 381.991943,215.839203
	C401.947266,215.786209 420.979675,215.726318 440.012085,215.666412
	C442.005402,221.084793 444.161377,226.449738 445.962158,231.931366
	C451.824341,249.776245 457.556641,267.663788 463.616669,286.197571
	C471.200562,309.830078 478.449432,332.818268 485.830444,355.764008
	C492.190552,375.535950 498.701172,395.259521 505.145264,415.004486
	C508.211761,425.044098 511.278259,435.083710 514.344788,445.123291
	C514.089661,445.258057 513.834534,445.392822 513.579346,445.527588
	C509.964050,441.020264 506.348694,436.512970 502.411224,431.887451
	C498.433350,426.301300 494.953674,420.705292 491.088470,415.389679
	C480.050720,400.210205 468.856262,385.144714 457.453064,369.815857
z"/>
<path fill="transparent" opacity="1.000000" stroke="none"
	d="
M407.555908,135.915283
	C427.689331,135.899292 447.380249,135.938263 467.536987,135.918915
	C483.964966,135.860596 499.927032,135.860596 517.390625,135.860596
	C492.318207,160.051727 468.152344,183.368164 443.555389,206.410278
	C431.177368,187.649689 419.238647,169.158096 407.254639,150.695877
	C406.754150,149.924820 405.830933,149.428101 405.104645,148.803589
	C402.899567,144.827362 400.694489,140.851135 397.987701,135.970230
	C401.425934,135.970230 404.269653,135.970230 407.555908,135.915283
z"/>
<path fill="#F88396" opacity="1.000000" stroke="none"
	d="
M505.479126,414.940369
	C498.701172,395.259521 492.190552,375.535950 485.830444,355.764008
	C478.449432,332.818268 471.200562,309.830078 463.853943,286.466370
	C465.297852,284.753510 466.782166,283.434601 468.604919,282.066101
	C473.657410,296.362061 478.427551,310.689514 483.073700,325.057037
	C491.921051,352.416351 500.699524,379.797913 509.495239,407.173920
	C509.798920,408.118988 509.980652,409.103210 510.284607,410.459595
	C508.837616,412.192078 507.325287,413.534180 505.479126,414.940369
z"/>
<path fill="#FC77B2" opacity="1.000000" stroke="none"
	d="
M404.962097,149.129456
	C405.830933,149.428101 406.754150,149.924820 407.254639,150.695877
	C419.238647,169.158096 431.177368,187.649689 443.249878,206.464539
	C442.252563,209.503876 441.129639,212.214645 440.009399,215.295898
	C420.979675,215.726318 401.947266,215.786209 382.452423,215.755676
	C382.326202,213.742828 382.662445,211.820389 383.464111,209.460876
	C401.336670,209.023788 418.743805,209.023788 436.868317,209.023788
	C435.599274,206.949493 434.782745,205.559708 433.914093,204.203323
	C423.247406,187.547089 412.573120,170.895721 401.900818,154.243103
	C402.873718,152.647186 403.846649,151.051254 404.962097,149.129456
z"/>
<path fill="#F88396" opacity="1.000000" stroke="none"
	d="
M568.544189,209.083267
	C568.677734,211.070404 568.345581,212.993698 568.021484,215.286163
	C544.330872,215.715988 520.632080,215.776627 496.472931,215.748352
	C496.342041,213.741135 496.671600,211.822861 497.002411,209.524933
	C520.695251,209.103348 544.386902,209.061386 568.544189,209.083267
z"/>
<path fill="transparent" opacity="1.000000" stroke="none"
	d="
M401.611847,154.048401
	C412.573120,170.895721 423.247406,187.547089 433.914093,204.203323
	C434.782745,205.559708 435.599274,206.949493 436.868317,209.023788
	C418.743805,209.023788 401.336670,209.023788 383.463745,209.082001
	C370.600555,209.140198 358.203247,209.140198 344.831268,209.140198
	C360.629425,185.355911 375.843231,162.451401 391.425140,138.992630
	C394.869232,144.163788 398.096069,149.008759 401.611847,154.048401
z"/>
</svg>
